<svg width="375" height="286" viewBox="0 0 375 286" fill="none" xmlns="http://www.w3.org/2000/svg">
<g clip-path="url(#clip0_1984_4775)">
<path d="M31.9385 278.552H21.9548L13.6835 248.832H11.2558V278.552H1.80841V215.514H11.2558V239.825H13.9564L21.9641 215.514H31.948L22.237 244.329L31.9385 278.552Z" fill="#E7352E"/>
<path d="M47.2208 257.841V278.552H37.7733V215.514H61.5142C64.0362 215.514 65.6544 217.229 65.6544 219.66V253.695C65.6544 256.126 64.0362 257.841 61.5142 257.841H47.2208ZM47.2208 248.842H56.2165V224.532H47.2208V248.842Z" fill="#E7352E"/>
<path d="M77.4367 278.552C74.9146 278.552 73.2964 276.837 73.2964 274.406V219.66C73.2964 217.229 74.9146 215.514 77.4367 215.514H97.4887C100.011 215.514 101.629 217.229 101.629 219.66V274.406C101.629 276.837 100.011 278.552 97.4887 278.552H77.4367ZM92.1912 269.553V224.532H82.7534V269.553H92.1912Z" fill="#E7352E"/>
<path d="M113.86 278.552C111.338 278.552 109.719 276.837 109.719 274.406V219.66C109.719 217.229 111.338 215.514 113.86 215.514H137.149V233.521H127.711V224.513H119.167V269.534H127.711V257.841H137.149V278.552H113.86Z" fill="#E7352E"/>
<path d="M148.929 278.552C146.407 278.552 144.788 276.837 144.788 274.406V219.66C144.788 217.229 146.407 215.514 148.929 215.514H172.218V233.521H162.78V224.513H154.236V269.534H162.78V257.841H172.218V278.552H148.929Z" fill="#E7352E"/>
<path d="M227.07 215.523V278.561H217.632V248.842H207.291V278.561H197.843V215.523H207.291V239.834H217.632V215.523H227.07Z" fill="#E7352E"/>
<path d="M263.044 215.523V278.561H253.606V257.841H244.61V278.552H235.163V215.514H263.044V215.523ZM253.606 224.522H244.61V248.832H253.606V224.522Z" fill="#E7352E"/>
<path d="M292.721 278.552H271.135V215.514H280.583V269.543H289.579V215.514H299.016V269.543H302.169V286.834H292.721V278.552Z" fill="#E7352E"/>
<path d="M328.234 278.552V243.255L317.892 264.955V278.552H308.445V215.514H317.892V247.57L328.234 225.869V215.514H337.671V278.552H328.234Z" fill="#E7352E"/>
<path d="M365.553 278.552V243.255L355.212 264.955V278.552H345.774V215.514H355.212V247.57L365.553 225.869V215.514H374.991V278.552H365.553Z" fill="#E7352E"/>
<path d="M267.878 187.34V172.142C255.523 169.277 243.958 164.481 233.466 158.187C225.026 158.799 217.507 159.703 210.751 160.778C226.983 173.687 246.489 183.006 267.878 187.34Z" fill="#E7352E"/>
<path d="M205.248 64.0724V-2.46143H189.684V64.0724C189.684 75.3418 187.859 88.4389 184.537 98.8887C191.745 96.967 200.27 94.9597 210.584 93.311C207.14 84.1616 205.248 74.3144 205.248 64.0724Z" fill="#E7352E"/>
<path d="M183.839 99.0772C180.48 88.5991 178.636 75.4074 178.636 64.0813V-2.45215H163.072V64.0813C163.072 80.4578 158.264 95.8075 149.946 108.952C156.307 106.879 162.018 104.957 167.335 103.619C172.021 102.432 177.422 100.802 183.839 99.0772Z" fill="#E7352E"/>
<path d="M230.127 62.6875V47.6958H214.563V62.6875C214.563 73.0145 216.699 82.8804 220.548 91.9261C225.601 91.3229 231.021 90.8234 236.883 90.4654C232.564 82.0602 230.127 72.6282 230.127 62.6875Z" fill="#E7352E"/>
<path d="M153.746 62.6875V47.6958H138.182V62.6875C138.182 80.1945 130.654 96.1094 118.525 107.662C113.274 112.665 107.167 116.839 100.43 119.968V120.072C113.322 118.781 124.199 116.463 133.637 113.89C146.143 100.123 153.746 82.2109 153.746 62.6875Z" fill="#E7352E"/>
<path d="M184.527 98.8887C184.291 98.9544 184.066 99.011 183.83 99.0767C183.943 99.416 184.037 99.7836 184.15 100.113C184.291 99.7179 184.404 99.2936 184.527 98.8887Z" fill="#E7352E"/>
<path d="M198.33 104.166C194.265 114.616 189.786 124.509 184.188 132.048L184.15 132.095L184.113 132.048C178.514 124.509 174.035 114.616 169.969 104.166C164.531 116.227 156.711 127.11 147.094 136.269C134.297 148.462 118.291 157.602 100.431 162.436V146.917C113.991 142.554 126.167 135.242 136.094 125.791C141.392 120.74 146.05 115.087 149.936 108.943C144.968 110.564 139.585 112.27 133.648 113.89C132.33 115.351 130.966 116.773 129.536 118.13C121.34 125.932 111.45 132.104 100.441 136.099V120.072C93.7127 120.74 86.4672 121.155 78.5628 121.155C33.6782 121.155 0.499329 103.619 0.499329 103.619C12.2804 127.949 33.6688 149.705 33.6688 149.705C22.9322 152.146 0.499329 171.095 0.499329 171.095C0.499329 171.095 33.697 188.631 78.5628 188.631C123.429 188.631 147.828 176.014 167.335 171.095C177.441 168.56 190.699 163.953 210.752 160.777C207.693 158.346 204.729 155.792 201.916 153.107C198.114 149.489 194.548 145.654 191.226 141.621L199.572 127.459C203.553 132.886 208.023 137.965 212.916 142.629C219.107 148.528 226.024 153.719 233.467 158.186C239.611 157.743 246.255 157.46 253.425 157.385C241.371 152.241 230.455 145.061 221.225 136.269C211.589 127.11 203.769 116.227 198.33 104.166ZM166.403 153.107C148.628 170.03 125.856 182.185 100.441 187.34V172.141C121.556 167.241 140.479 156.839 155.403 142.629C160.305 137.965 164.775 132.886 168.746 127.459L177.093 141.621C173.771 145.654 170.195 149.489 166.403 153.107Z" fill="#26336A"/>
<path d="M364.3 114.474C364.3 114.474 332.373 94.2816 287.63 90.6256C279.292 89.9471 271.68 89.7777 264.623 89.9567C254.423 89.7585 245.22 89.9754 236.873 90.4749C240.157 96.8728 244.533 102.677 249.774 107.662C255.025 112.665 261.132 116.84 267.869 119.968V136.109C256.86 132.123 246.96 125.941 238.765 118.14C230.964 110.715 224.735 101.81 220.538 91.9351C217.028 92.3497 213.725 92.8209 210.573 93.3205C215.203 105.636 222.655 116.708 232.206 125.8C242.134 135.251 254.309 142.563 267.869 146.926V157.517C274.005 157.687 280.469 157.998 287.319 158.478V158.318C329.851 162.841 359.756 181.771 359.756 181.771C349.649 156.547 329.776 133.103 329.776 133.103C340.654 131.539 364.3 114.474 364.3 114.474Z" fill="#26336A"/>
</g>
<defs>
<clipPath id="clip0_1984_4775">
<rect width="375" height="286" fill="white"/>
</clipPath>
</defs>
</svg>
