<svg width="1170" height="815" viewBox="0 0 1170 815" fill="none" xmlns="http://www.w3.org/2000/svg">
<g clip-path="url(#clip0_3601_156)">
<g clip-path="url(#clip1_3601_156)">
<rect width="1170" height="1595" fill="white" fill-opacity="0.34"/>
<path d="M901.115 72.284C965.21 63.1388 1030.62 65.605 1061.13 69.4909C1097.21 74.0845 1109.18 77.5316 1141.12 79.2665C1169.5 80.8084 1244.94 69.7485 1235.29 78.0678C1222.7 88.9123 1226.14 131.384 1244.94 149.092C1247.67 151.667 1158.33 158.044 1104.2 153.282C1029.57 146.715 1005.55 135.703 956.543 140.713C938.39 142.612 916.876 146.168 901.5 151.187C910.5 138 927 120.5 932 107.5C923.5 91 910.5 84.5 901.115 72.284Z" fill="#26336A"/>
<path d="M991.799 97.4L995.179 90H998.519L993.139 100.82C991.919 103.26 990.519 104.22 988.559 104.22C987.359 104.22 986.419 103.9 985.539 103.4L986.739 101.14C987.299 101.48 987.859 101.6 988.399 101.6C988.959 101.6 989.599 101.34 990.159 100.48L984.559 90H987.999L991.799 97.4ZM1008.69 104V98.78C1007.75 99.24 1006.41 99.82 1004.99 99.82C1002.21 99.82 1000.29 98.36 1000.29 95.12V90H1003.37V94.22C1003.37 95.96 1004.05 96.94 1005.63 96.94C1006.87 96.94 1008.05 96.54 1008.69 96.04V90H1011.77V104H1008.69ZM1013.92 104L1019.92 89.9H1022.76L1028.76 104H1025.54L1024.26 100.86H1018.34L1017.06 104H1013.92ZM1019.44 98.14H1023.16L1021.3 93.6L1019.44 98.14ZM1037.48 104.24C1033.36 104.24 1030.3 101.06 1030.3 97C1030.3 93.02 1033.3 89.76 1037.6 89.76C1040.24 89.76 1041.72 90.76 1043.02 92.04L1041.18 94.16C1040.1 93.18 1039.18 92.6 1037.58 92.6C1035.22 92.6 1033.52 94.56 1033.52 97C1033.52 99.4 1035.18 101.4 1037.58 101.4C1039.18 101.4 1040.16 100.76 1041.26 99.76L1043.22 101.86C1041.78 103.4 1040.18 104.24 1037.48 104.24ZM1048.94 104V92.84H1044.68V90H1056.28V92.84H1052.02V104H1048.94ZM1070.71 90V104H1067.67V94.82L1061.55 104H1058.65V90H1061.69V99.18L1067.85 90H1070.71ZM1074.08 104V90H1084.64V92.74H1077.14V95.58H1083.74V98.32H1077.14V101.26H1084.74V104H1074.08ZM972.953 111.78V114.22H976.653C979.813 114.22 981.573 115.94 981.573 118.56C981.573 121.42 979.593 123 976.353 123H969.873V109H980.613V111.78H972.953ZM976.333 116.78H972.953V120.22H976.353C977.793 120.22 978.493 119.66 978.493 118.44C978.493 117.36 977.793 116.78 976.333 116.78ZM984.112 123V109H994.672V111.74H987.172V114.58H993.772V117.32H987.172V120.26H994.772V123H984.112ZM1004.07 123.24C999.95 123.24 996.89 120.06 996.89 116C996.89 112.02 999.89 108.76 1004.19 108.76C1006.83 108.76 1008.31 109.76 1009.61 111.04L1007.77 113.16C1006.69 112.18 1005.77 111.6 1004.17 111.6C1001.81 111.6 1000.11 113.56 1000.11 116C1000.11 118.4 1001.77 120.4 1004.17 120.4C1005.77 120.4 1006.75 119.76 1007.85 118.76L1009.81 120.86C1008.37 122.4 1006.77 123.24 1004.07 123.24ZM1012.28 123V109H1023.96V123H1020.88V111.78H1015.36V123H1012.28ZM1029.17 109H1039.17V123H1036.09V111.78H1032.05V112.84C1032.05 121.08 1030.71 123.18 1027.51 123.18C1027.01 123.18 1026.27 123.1 1025.89 123L1026.09 120.46C1026.23 120.48 1026.37 120.5 1026.57 120.5C1028.23 120.5 1029.17 119.44 1029.17 111.9V109ZM1041.33 123L1047.33 108.9H1050.17L1056.17 123H1052.95L1051.67 119.86H1045.75L1044.47 123H1041.33ZM1046.85 117.14H1050.57L1048.71 112.6L1046.85 117.14ZM1061.59 123V111.84H1057.33V109H1068.93V111.84H1064.67V123H1061.59ZM1071.3 123V109H1074.38V114.54H1080.06V109H1083.14V123H1080.06V117.38H1074.38V123H1071.3ZM1093.29 123.24C1088.97 123.24 1085.87 120.02 1085.87 116C1085.87 112.02 1089.01 108.76 1093.33 108.76C1097.65 108.76 1100.75 111.98 1100.75 116C1100.75 119.98 1097.61 123.24 1093.29 123.24ZM1093.33 120.4C1095.81 120.4 1097.53 118.44 1097.53 116C1097.53 113.6 1095.77 111.6 1093.29 111.6C1090.81 111.6 1089.09 113.56 1089.09 116C1089.09 118.4 1090.85 120.4 1093.33 120.4Z" fill="white"/>
<g clip-path="url(#clip2_3601_156)">
<path d="M98.9387 346.552H88.9549L80.6837 316.832H78.256V346.552H68.8086V283.514H78.256V307.824H80.9566L88.9643 283.514H98.9481L89.2372 312.328L98.9387 346.552Z" fill="#E7352E"/>
<path d="M114.221 325.841V346.552H104.773V283.514H128.514C131.036 283.514 132.655 285.229 132.655 287.66V321.695C132.655 324.126 131.036 325.841 128.514 325.841H114.221ZM114.221 316.842H123.217V292.531H114.221V316.842Z" fill="#E7352E"/>
<path d="M144.437 346.552C141.915 346.552 140.296 344.837 140.296 342.406V287.66C140.296 285.229 141.915 283.514 144.437 283.514H164.489C167.011 283.514 168.629 285.229 168.629 287.66V342.406C168.629 344.837 167.011 346.552 164.489 346.552H144.437ZM159.191 337.553V292.531H149.753V337.553H159.191Z" fill="#E7352E"/>
<path d="M180.86 346.552C178.338 346.552 176.719 344.837 176.719 342.406V287.66C176.719 285.229 178.338 283.514 180.86 283.514H204.149V301.521H194.711V292.513H186.167V337.534H194.711V325.841H204.149V346.552H180.86Z" fill="#E7352E"/>
<path d="M215.929 346.552C213.407 346.552 211.789 344.837 211.789 342.406V287.66C211.789 285.229 213.407 283.514 215.929 283.514H239.218V301.521H229.78V292.513H221.236V337.534H229.78V325.841H239.218V346.552H215.929Z" fill="#E7352E"/>
<path d="M294.07 283.523V346.561H284.632V316.842H274.291V346.561H264.843V283.523H274.291V307.834H284.632V283.523H294.07Z" fill="#E7352E"/>
<path d="M330.044 283.523V346.561H320.606V325.841H311.61V346.552H302.163V283.514H330.044V283.523ZM320.606 292.522H311.61V316.832H320.606V292.522Z" fill="#E7352E"/>
<path d="M359.721 346.552H338.135V283.514H347.583V337.543H356.579V283.514H366.016V337.543H369.169V354.834H359.721V346.552Z" fill="#E7352E"/>
<path d="M395.233 346.552V311.255L384.892 332.954V346.552H375.444V283.514H384.892V315.57L395.233 293.869V283.514H404.671V346.552H395.233Z" fill="#E7352E"/>
<path d="M432.553 346.552V311.255L422.212 332.954V346.552H412.774V283.514H422.212V315.57L432.553 293.869V283.514H441.991V346.552H432.553Z" fill="#E7352E"/>
<path d="M81.9164 374.565H87.4682V404.981H82.9139V391.95L83.6478 383.262H83.4314L80.2603 398.904H76.0071L72.7513 383.262H72.5349L73.3629 391.95V404.981H68.8086V374.565H74.3604L78.049 391.95H78.1807L81.9164 374.565Z" fill="#E7352E"/>
<path d="M102.054 404.991C100.841 404.991 100.06 404.162 100.06 402.993V376.572C100.06 375.394 100.841 374.574 102.054 374.574H111.728C112.942 374.574 113.723 375.403 113.723 376.572V402.993C113.723 404.171 112.942 404.991 111.728 404.991H102.054ZM109.168 400.638V378.909H104.614V400.638H109.168Z" fill="#E7352E"/>
<path d="M128.305 404.991C127.092 404.991 126.311 404.162 126.311 402.993V376.572C126.311 375.394 127.092 374.574 128.305 374.574H139.541V383.262H134.986V378.918H130.865V400.647H134.986V395.003H139.541V405H128.305V404.991Z" fill="#E7352E"/>
<path d="M166.444 404.991H161.626L157.637 390.649H156.46V404.991H151.906V374.574H156.46V386.306H157.759L161.617 374.574H166.435L161.749 388.482L166.444 404.991Z" fill="#E7352E"/>
<path d="M179.937 404.991C178.723 404.991 177.942 404.162 177.942 402.993V376.572C177.942 375.394 178.723 374.574 179.937 374.574H189.611C190.825 374.574 191.606 375.403 191.606 376.572V402.993C191.606 404.171 190.825 404.991 189.611 404.991H179.937ZM187.061 400.638V378.909H182.506V400.638H187.061Z" fill="#E7352E"/>
<path d="M217.437 385.081C217.437 386.824 216.524 387.993 215.179 388.473C216.524 388.954 217.437 390.084 217.437 391.865V402.993C217.437 404.171 216.656 404.991 215.442 404.991H204.207V374.574H215.442C216.656 374.574 217.437 375.403 217.437 376.572V385.081ZM212.883 378.918H208.761V386.306H212.883V378.918ZM208.761 390.649V400.647H212.883V390.649H208.761Z" fill="#E7352E"/>
<path d="M232.011 404.991C230.798 404.991 230.017 404.162 230.017 402.993V376.572C230.017 375.394 230.798 374.574 232.011 374.574H243.247V383.262H238.693V378.918H234.571V400.647H238.693V395.003H243.247V405H232.011V404.991Z" fill="#E7352E"/>
<path d="M270.159 404.991H265.341L261.351 390.649H260.175V404.991H255.62V374.574H260.175V386.306H261.473L265.331 374.574H270.149L265.463 388.482L270.159 404.991Z" fill="#E7352E"/>
<path d="M291.209 404.991V387.955L286.221 398.423V404.981H281.667V374.565H286.221V390.037L291.209 379.569V374.574H295.763V404.991H291.209Z" fill="#E7352E"/>
<path d="M317.894 404.991V387.955L312.907 398.423V404.982H308.353V374.565H312.907V390.037L317.894 379.569V374.575H322.448V404.991H317.894ZM311.815 370.005H318.11L317.245 373.265H312.69L311.815 370.005Z" fill="#E7352E"/>
<path d="M363.41 374.566C364.624 374.566 365.405 375.395 365.405 376.563V402.984C365.405 404.162 364.624 404.982 363.41 404.982H352.175V394.985H356.73V400.629H360.851V391.065H355.864V386.721H360.851V378.9H356.73V383.244H352.175V374.556H363.41V374.566Z" fill="#E7352E"/>
<path d="M377.121 374.565H390.36V378.909H386.022V404.981H381.468V378.909H377.13V374.565H377.121Z" fill="#E7352E"/>
<path d="M415.53 374.565V404.981H410.975V394.984H406.638V404.981H402.083V374.565H415.53ZM410.975 378.918H406.638V390.649H410.975V378.918Z" fill="#E7352E"/>
<path d="M442 374.565V404.981H437.446V378.909H432.675V404.981H428.121V374.565H442Z" fill="#E7352E"/>
<path d="M334.878 255.34V240.142C322.523 237.277 310.958 232.481 300.466 226.187C292.025 226.799 284.507 227.703 277.75 228.778C293.982 241.687 313.489 251.006 334.878 255.34Z" fill="#E7352E"/>
<path d="M272.248 132.072V65.5386H256.684V132.072C256.684 143.342 254.858 156.439 251.537 166.889C258.745 164.967 267.27 162.96 277.584 161.311C274.139 152.162 272.248 142.314 272.248 132.072Z" fill="#E7352E"/>
<path d="M250.839 167.077C247.48 156.599 245.636 143.408 245.636 132.082V65.548H230.072V132.082C230.072 148.458 225.264 163.808 216.946 176.952C223.307 174.879 229.018 172.957 234.335 171.619C239.021 170.432 244.422 168.802 250.839 167.077Z" fill="#E7352E"/>
<path d="M297.127 130.688V115.696H281.563V130.688C281.563 141.015 283.699 150.88 287.548 159.926C292.601 159.323 298.021 158.823 303.883 158.466C299.564 150.06 297.127 140.628 297.127 130.688Z" fill="#E7352E"/>
<path d="M220.746 130.688V115.696H205.182V130.688C205.182 148.195 197.655 164.11 185.525 175.662C180.275 180.666 174.168 184.839 167.431 187.968V188.072C180.322 186.781 191.199 184.463 200.638 181.89C213.143 168.124 220.746 150.211 220.746 130.688Z" fill="#E7352E"/>
<path d="M251.526 166.889C251.291 166.954 251.065 167.011 250.83 167.077C250.943 167.416 251.037 167.784 251.15 168.113C251.291 167.718 251.404 167.294 251.526 166.889Z" fill="#E7352E"/>
<path d="M265.33 172.166C261.265 182.616 256.786 192.509 251.188 200.048L251.15 200.095L251.113 200.048C245.514 192.509 241.035 182.616 236.97 172.166C231.531 184.227 223.711 195.11 214.095 204.269C201.297 216.462 185.291 225.602 167.431 230.436V214.917C180.991 210.554 193.167 203.242 203.095 193.791C208.392 188.741 213.05 183.087 216.936 176.943C211.968 178.564 206.586 180.27 200.648 181.89C199.33 183.351 197.966 184.774 196.536 186.13C188.34 193.932 178.45 200.104 167.441 204.099V188.072C160.713 188.741 153.467 189.155 145.563 189.155C100.678 189.155 67.4995 171.619 67.4995 171.619C79.2806 195.949 100.669 217.706 100.669 217.706C89.9324 220.146 67.4995 239.095 67.4995 239.095C67.4995 239.095 100.697 256.631 145.563 256.631C190.429 256.631 214.828 244.014 234.335 239.095C244.441 236.561 257.699 231.953 277.752 228.777C274.694 226.346 271.729 223.793 268.916 221.107C265.114 217.489 261.548 213.654 258.226 209.621L266.573 195.459C270.553 200.886 275.023 205.965 279.916 210.629C286.108 216.528 293.024 221.72 300.467 226.186C306.612 225.743 313.255 225.461 320.425 225.385C308.371 220.241 297.455 213.061 288.225 204.269C278.589 195.11 270.769 184.227 265.33 172.166ZM233.403 221.107C215.628 238.03 192.857 250.186 167.441 255.34V240.141C188.556 235.241 207.479 224.839 222.403 210.629C227.306 205.965 231.776 200.886 235.746 195.459L244.093 209.621C240.771 213.654 237.195 217.489 233.403 221.107Z" fill="#26336A"/>
<path d="M431.3 182.475C431.3 182.475 399.373 162.282 354.629 158.626C346.292 157.947 338.68 157.778 331.623 157.957C321.422 157.759 312.22 157.976 303.873 158.475C307.157 164.873 311.533 170.677 316.774 175.662C322.025 180.666 328.132 184.84 334.869 187.968V204.109C323.86 200.123 313.96 193.942 305.764 186.14C297.964 178.715 291.735 169.81 287.538 159.935C284.028 160.35 280.725 160.821 277.573 161.321C282.202 173.636 289.655 184.708 299.206 193.801C309.133 203.251 321.309 210.563 334.869 214.926V225.517C341.004 225.687 347.469 225.998 354.319 226.478V226.318C396.851 230.841 426.755 249.772 426.755 249.772C416.649 224.547 396.776 201.103 396.776 201.103C407.654 199.539 431.3 182.475 431.3 182.475Z" fill="#26336A"/>
</g>
</g>
</g>
<defs>
<clipPath id="clip0_3601_156">
<rect width="1170" height="815" fill="white"/>
</clipPath>
<clipPath id="clip1_3601_156">
<rect width="1170" height="1595" fill="white"/>
</clipPath>
<clipPath id="clip2_3601_156">
<rect width="375" height="337" fill="white" transform="translate(67 68)"/>
</clipPath>
</defs>
</svg>
