<svg width="375" height="337" viewBox="0 0 375 337" fill="none" xmlns="http://www.w3.org/2000/svg">
<g clip-path="url(#clip0_1952_6091)">
<path d="M31.9387 278.552H21.9549L13.6837 248.832H11.256V278.552H1.80859V215.514H11.256V239.824H13.9566L21.9643 215.514H31.9481L22.2372 244.328L31.9387 278.552Z" fill="#E7352E"/>
<path d="M47.2209 257.841V278.552H37.7734V215.514H61.5143C64.0363 215.514 65.6545 217.229 65.6545 219.66V253.695C65.6545 256.126 64.0363 257.841 61.5143 257.841H47.2209ZM47.2209 248.842H56.2166V224.531H47.2209V248.842Z" fill="#E7352E"/>
<path d="M77.4367 278.552C74.9146 278.552 73.2964 276.837 73.2964 274.406V219.66C73.2964 217.229 74.9146 215.514 77.4367 215.514H97.4887C100.011 215.514 101.629 217.229 101.629 219.66V274.406C101.629 276.837 100.011 278.552 97.4887 278.552H77.4367ZM92.1912 269.553V224.531H82.7534V269.553H92.1912Z" fill="#E7352E"/>
<path d="M113.86 278.552C111.338 278.552 109.719 276.837 109.719 274.406V219.66C109.719 217.229 111.338 215.514 113.86 215.514H137.149V233.521H127.711V224.513H119.167V269.534H127.711V257.841H137.149V278.552H113.86Z" fill="#E7352E"/>
<path d="M148.929 278.552C146.407 278.552 144.789 276.837 144.789 274.406V219.66C144.789 217.229 146.407 215.514 148.929 215.514H172.218V233.521H162.78V224.513H154.236V269.534H162.78V257.841H172.218V278.552H148.929Z" fill="#E7352E"/>
<path d="M227.07 215.523V278.561H217.632V248.842H207.291V278.561H197.843V215.523H207.291V239.834H217.632V215.523H227.07Z" fill="#E7352E"/>
<path d="M263.044 215.523V278.561H253.606V257.841H244.61V278.552H235.163V215.514H263.044V215.523ZM253.606 224.522H244.61V248.832H253.606V224.522Z" fill="#E7352E"/>
<path d="M292.721 278.552H271.135V215.514H280.583V269.543H289.579V215.514H299.016V269.543H302.169V286.834H292.721V278.552Z" fill="#E7352E"/>
<path d="M328.233 278.552V243.255L317.892 264.954V278.552H308.444V215.514H317.892V247.57L328.233 225.869V215.514H337.671V278.552H328.233Z" fill="#E7352E"/>
<path d="M365.553 278.552V243.255L355.212 264.954V278.552H345.774V215.514H355.212V247.57L365.553 225.869V215.514H374.991V278.552H365.553Z" fill="#E7352E"/>
<path d="M14.9164 306.565H20.4682V336.981H15.9139V323.95L16.6478 315.262H16.4314L13.2603 330.904H9.00708L5.75131 315.262H5.53487L6.36291 323.95V336.981H1.80859V306.565H7.36036L11.049 323.95H11.1807L14.9164 306.565Z" fill="#E7352E"/>
<path d="M35.0544 336.991C33.8406 336.991 33.0596 336.162 33.0596 334.993V308.572C33.0596 307.394 33.8406 306.574 35.0544 306.574H44.7277C45.9416 306.574 46.7226 307.403 46.7226 308.572V334.993C46.7226 336.171 45.9416 336.991 44.7277 336.991H35.0544ZM42.1682 332.638V310.909H37.6139V332.638H42.1682Z" fill="#E7352E"/>
<path d="M61.3055 336.991C60.0917 336.991 59.3105 336.162 59.3105 334.993V308.572C59.3105 307.394 60.0917 306.574 61.3055 306.574H72.5408V315.262H67.9865V310.918H63.8648V332.647H67.9865V327.003H72.5408V337H61.3055V336.991Z" fill="#E7352E"/>
<path d="M99.4442 336.991H94.6263L90.6365 322.649H89.4601V336.991H84.9058V306.574H89.4601V318.306H90.7587L94.6167 306.574H99.4346L94.7485 320.482L99.4442 336.991Z" fill="#E7352E"/>
<path d="M112.937 336.991C111.723 336.991 110.942 336.162 110.942 334.993V308.572C110.942 307.394 111.723 306.574 112.937 306.574H122.611C123.825 306.574 124.606 307.403 124.606 308.572V334.993C124.606 336.171 123.825 336.991 122.611 336.991H112.937ZM120.061 332.638V310.909H115.506V332.638H120.061Z" fill="#E7352E"/>
<path d="M150.437 317.081C150.437 318.824 149.524 319.993 148.179 320.473C149.524 320.954 150.437 322.084 150.437 323.865V334.993C150.437 336.171 149.656 336.991 148.442 336.991H137.207V306.574H148.442C149.656 306.574 150.437 307.403 150.437 308.572V317.081ZM145.883 310.918H141.761V318.306H145.883V310.918ZM141.761 322.649V332.647H145.883V322.649H141.761Z" fill="#E7352E"/>
<path d="M165.011 336.991C163.798 336.991 163.017 336.162 163.017 334.993V308.572C163.017 307.394 163.798 306.574 165.011 306.574H176.247V315.262H171.693V310.918H167.571V332.647H171.693V327.003H176.247V337H165.011V336.991Z" fill="#E7352E"/>
<path d="M203.159 336.991H198.341L194.351 322.649H193.175V336.991H188.62V306.574H193.175V318.306H194.473L198.331 306.574H203.149L198.463 320.482L203.159 336.991Z" fill="#E7352E"/>
<path d="M224.209 336.991V319.955L219.221 330.423V336.981H214.667V306.565H219.221V322.037L224.209 311.569V306.574H228.763V336.991H224.209Z" fill="#E7352E"/>
<path d="M250.894 336.991V319.955L245.907 330.423V336.982H241.353V306.565H245.907V322.037L250.894 311.569V306.575H255.448V336.991H250.894ZM244.815 302.005H251.11L250.245 305.265H245.69L244.815 302.005Z" fill="#E7352E"/>
<path d="M296.41 306.566C297.624 306.566 298.405 307.395 298.405 308.563V334.984C298.405 336.162 297.624 336.982 296.41 336.982H285.175V326.985H289.73V332.629H293.851V323.065H288.864V318.721H293.851V310.9H289.73V315.244H285.175V306.556H296.41V306.566Z" fill="#E7352E"/>
<path d="M310.121 306.565H323.36V310.909H319.022V336.981H314.468V310.909H310.13V306.565H310.121Z" fill="#E7352E"/>
<path d="M348.53 306.565V336.981H343.975V326.984H339.638V336.981H335.083V306.565H348.53ZM343.975 310.918H339.638V322.649H343.975V310.918Z" fill="#E7352E"/>
<path d="M375 306.565V336.981H370.446V310.909H365.675V336.981H361.121V306.565H375Z" fill="#E7352E"/>
<path d="M267.878 187.34V172.142C255.523 169.277 243.958 164.481 233.466 158.187C225.025 158.799 217.507 159.703 210.75 160.778C226.982 173.687 246.489 183.006 267.878 187.34Z" fill="#E7352E"/>
<path d="M205.248 64.0725V-2.46136H189.684V64.0725C189.684 75.3419 187.858 88.439 184.537 98.8888C191.745 96.9671 200.27 94.9598 210.584 93.311C207.139 84.1616 205.248 74.3144 205.248 64.0725Z" fill="#E7352E"/>
<path d="M183.839 99.0774C180.48 88.5993 178.636 75.4076 178.636 64.0815V-2.45197H163.072V64.0815C163.072 80.458 158.264 95.8077 149.946 108.952C156.307 106.879 162.018 104.957 167.335 103.619C172.021 102.432 177.422 100.802 183.839 99.0774Z" fill="#E7352E"/>
<path d="M230.127 62.6877V47.6959H214.563V62.6877C214.563 73.0146 216.699 82.8805 220.548 91.9262C225.601 91.323 231.021 90.8235 236.883 90.4655C232.564 82.0604 230.127 72.6283 230.127 62.6877Z" fill="#E7352E"/>
<path d="M153.746 62.6877V47.6959H138.182V62.6877C138.182 80.1947 130.655 96.1096 118.525 107.662C113.275 112.666 107.168 116.839 100.431 119.968V120.072C113.322 118.781 124.199 116.463 133.638 113.89C146.143 100.124 153.746 82.211 153.746 62.6877Z" fill="#E7352E"/>
<path d="M184.526 98.8888C184.291 98.9545 184.065 99.0111 183.83 99.0768C183.943 99.4161 184.037 99.7837 184.15 100.113C184.291 99.718 184.404 99.2938 184.526 98.8888Z" fill="#E7352E"/>
<path d="M198.33 104.166C194.265 114.616 189.786 124.509 184.188 132.048L184.15 132.095L184.113 132.048C178.514 124.509 174.035 114.616 169.97 104.166C164.531 116.227 156.711 127.11 147.095 136.269C134.297 148.462 118.291 157.602 100.431 162.436V146.917C113.991 142.554 126.167 135.242 136.095 125.791C141.392 120.741 146.05 115.087 149.936 108.943C144.968 110.564 139.586 112.27 133.648 113.89C132.33 115.351 130.966 116.774 129.536 118.13C121.34 125.932 111.45 132.104 100.441 136.099V120.072C93.7128 120.741 86.4674 121.155 78.563 121.155C33.6784 121.155 0.499512 103.619 0.499512 103.619C12.2806 127.949 33.669 149.706 33.669 149.706C22.9324 152.146 0.499512 171.095 0.499512 171.095C0.499512 171.095 33.6972 188.631 78.563 188.631C123.429 188.631 147.828 176.014 167.335 171.095C177.441 168.561 190.699 163.953 210.752 160.777C207.694 158.346 204.729 155.793 201.916 153.107C198.114 149.489 194.548 145.654 191.226 141.621L199.573 127.459C203.553 132.886 208.023 137.965 212.916 142.629C219.108 148.528 226.024 153.72 233.467 158.186C239.612 157.743 246.255 157.461 253.425 157.385C241.371 152.241 230.455 145.061 221.225 136.269C211.589 127.11 203.769 116.227 198.33 104.166ZM166.403 153.107C148.628 170.03 125.857 182.186 100.441 187.34V172.141C121.556 167.241 140.479 156.839 155.403 142.629C160.306 137.965 164.776 132.886 168.746 127.459L177.093 141.621C173.771 145.654 170.195 149.489 166.403 153.107Z" fill="#26336A"/>
<path d="M364.3 114.475C364.3 114.475 332.373 94.2819 287.629 90.6258C279.292 89.9473 271.68 89.778 264.623 89.9569C254.422 89.7587 245.22 89.9756 236.873 90.4752C240.157 96.8731 244.533 102.677 249.774 107.662C255.025 112.666 261.132 116.84 267.869 119.968V136.109C256.86 132.123 246.96 125.942 238.764 118.14C230.964 110.715 224.735 101.81 220.538 91.9353C217.028 92.3499 213.725 92.8212 210.573 93.3207C215.202 105.636 222.655 116.708 232.206 125.801C242.133 135.251 254.309 142.563 267.869 146.926V157.517C274.004 157.687 280.469 157.998 287.319 158.478V158.318C329.851 162.841 359.755 181.772 359.755 181.772C349.649 156.547 329.776 133.103 329.776 133.103C340.654 131.539 364.3 114.475 364.3 114.475Z" fill="#26336A"/>
</g>
<defs>
<clipPath id="clip0_1952_6091">
<rect width="375" height="337" fill="white"/>
</clipPath>
</defs>
</svg>
