<svg width="480" height="695" viewBox="0 0 480 695" fill="none" xmlns="http://www.w3.org/2000/svg">
<g clip-path="url(#clip0_1951_4820)">
<rect width="480" height="694" transform="translate(0 0.417236)" fill="white"/>
<path d="M277 24.8655C322.292 18.3919 368.51 20.1376 390.075 22.8883C415.568 26.14 424.024 28.58 446.592 29.8081C466.652 30.8996 519.96 23.0707 513.135 28.9596C504.239 36.636 506.672 66.7003 519.957 79.235C521.889 81.058 458.758 85.5722 420.507 82.2008C367.772 77.5529 350.794 69.7578 316.167 73.304C303.34 74.6484 288.137 77.165 277.272 80.7181C283.631 71.3835 295.291 58.9959 298.824 49.7936C292.818 38.1139 283.631 33.5127 277 24.8655Z" fill="#2A325A"/>
<path d="M336.939 42.1372L339.643 36.2172H342.315L338.011 44.8732C337.035 46.8252 335.915 47.5932 334.347 47.5932C333.387 47.5932 332.635 47.3372 331.931 46.9372L332.891 45.1292C333.339 45.4012 333.787 45.4972 334.219 45.4972C334.667 45.4972 335.179 45.2892 335.627 44.6012L331.147 36.2172H333.899L336.939 42.1372ZM350.449 47.4172V43.2412C349.697 43.6092 348.625 44.0732 347.489 44.0732C345.265 44.0732 343.729 42.9052 343.729 40.3132V36.2172H346.193V39.5932C346.193 40.9852 346.737 41.7692 348.001 41.7692C348.993 41.7692 349.937 41.4492 350.449 41.0492V36.2172H352.913V47.4172H350.449ZM354.634 47.4172L359.434 36.1372H361.706L366.506 47.4172H363.93L362.906 44.9052H358.17L357.146 47.4172H354.634ZM359.05 42.7292H362.026L360.538 39.0972L359.05 42.7292ZM373.483 47.6092C370.187 47.6092 367.739 45.0652 367.739 41.8172C367.739 38.6332 370.139 36.0252 373.579 36.0252C375.691 36.0252 376.875 36.8252 377.915 37.8492L376.443 39.5452C375.579 38.7612 374.843 38.2972 373.563 38.2972C371.675 38.2972 370.315 39.8652 370.315 41.8172C370.315 43.7372 371.643 45.3372 373.563 45.3372C374.843 45.3372 375.627 44.8252 376.507 44.0252L378.075 45.7052C376.923 46.9372 375.643 47.6092 373.483 47.6092ZM382.655 47.4172V38.4892H379.247V36.2172H388.527V38.4892H385.119V47.4172H382.655ZM400.07 36.2172V47.4172H397.638V40.0732L392.742 47.4172H390.422V36.2172H392.854V43.5612L397.782 36.2172H400.07ZM402.766 47.4172V36.2172H411.214V38.4092H405.214V40.6812H410.494V42.8732H405.214V45.2252H411.294V47.4172H402.766ZM321.863 53.4412V55.3932H324.823C327.351 55.3932 328.759 56.7692 328.759 58.8652C328.759 61.1532 327.175 62.4172 324.583 62.4172H319.399V51.2172H327.991V53.4412H321.863ZM324.567 57.4412H321.863V60.1932H324.583C325.735 60.1932 326.295 59.7452 326.295 58.7692C326.295 57.9052 325.735 57.4412 324.567 57.4412ZM330.789 62.4172V51.2172H339.237V53.4092H333.237V55.6812H338.517V57.8732H333.237V60.2252H339.317V62.4172H330.789ZM346.756 62.6092C343.46 62.6092 341.012 60.0652 341.012 56.8172C341.012 53.6332 343.412 51.0252 346.852 51.0252C348.964 51.0252 350.148 51.8252 351.188 52.8492L349.716 54.5452C348.852 53.7612 348.116 53.2972 346.836 53.2972C344.948 53.2972 343.588 54.8652 343.588 56.8172C343.588 58.7372 344.916 60.3372 346.836 60.3372C348.116 60.3372 348.9 59.8252 349.78 59.0252L351.348 60.7052C350.196 61.9372 348.916 62.6092 346.756 62.6092ZM353.321 62.4172V51.2172H362.665V62.4172H360.201V53.4412H355.785V62.4172H353.321ZM366.84 51.2172H374.84V62.4172H372.376V53.4412H369.144V54.2892C369.144 60.8812 368.072 62.5612 365.512 62.5612C365.112 62.5612 364.52 62.4972 364.216 62.4172L364.376 60.3852C364.488 60.4012 364.6 60.4172 364.76 60.4172C366.088 60.4172 366.84 59.5692 366.84 53.5372V51.2172ZM376.564 62.4172L381.364 51.1372H383.636L388.436 62.4172H385.86L384.836 59.9052H380.1L379.076 62.4172H376.564ZM380.98 57.7292H383.956L382.468 54.0972L380.98 57.7292ZM392.772 62.4172V53.4892H389.364V51.2172H398.644V53.4892H395.236V62.4172H392.772ZM400.539 62.4172V51.2172H403.003V55.6492H407.547V51.2172H410.011V62.4172H407.547V57.9212H403.003V62.4172H400.539ZM418.136 62.6092C414.68 62.6092 412.2 60.0332 412.2 56.8172C412.2 53.6332 414.712 51.0252 418.168 51.0252C421.624 51.0252 424.104 53.6012 424.104 56.8172C424.104 60.0012 421.592 62.6092 418.136 62.6092ZM418.168 60.3372C420.152 60.3372 421.528 58.7692 421.528 56.8172C421.528 54.8972 420.12 53.2972 418.136 53.2972C416.152 53.2972 414.776 54.8652 414.776 56.8172C414.776 58.7372 416.184 60.3372 418.168 60.3372Z" fill="white"/>
</g>
<defs>
<clipPath id="clip0_1951_4820">
<rect width="480" height="694" fill="white" transform="translate(0 0.417236)"/>
</clipPath>
</defs>
</svg>
