<svg width="188" height="56" viewBox="0 0 188 56" fill="none" xmlns="http://www.w3.org/2000/svg">
<path d="M102.532 29.0079H98.9721V6.02968H102.532V15.0417H103.123C105.054 15.0417 105.677 12.9813 105.677 11.44V6.02968H109.252V11.2827C109.316 12.338 109.103 13.3917 108.634 14.3422C108.164 15.2927 107.453 16.1077 106.571 16.7088C107.465 17.2943 108.186 18.1042 108.657 19.0552C109.128 20.0062 109.334 21.0638 109.252 22.1191V29.0078H105.677V21.9619C105.677 20.4835 104.958 18.6748 103.154 18.6906H102.532V29.0079ZM163.033 29.0079V6.02968H166.209V19.4611L169.881 6.02963H173.856V29.0079H170.647V13.0285L166.273 29.0393L163.033 29.0079ZM176.378 29.0079V6.02968H179.555V19.4611L183.21 6.02963H187.185V29.0079H183.976V13.0285L179.603 29.0393L176.378 29.0079ZM185.701 3.27733H177.863V0.587891H185.701V3.27733ZM153.966 29.0079H150.406V6.02968H153.966V15.0417H154.556C156.488 15.0417 157.111 12.9813 157.111 11.44V6.02968H160.686V11.2827C160.75 12.338 160.537 13.3917 160.067 14.3422C159.598 15.2926 158.887 16.1077 158.004 16.7088C158.899 17.2943 159.619 18.1042 160.091 19.0552C160.562 20.0062 160.768 21.0638 160.686 22.1191V29.0078H157.111V21.9619C157.111 20.4835 156.408 18.6748 154.588 18.6906H153.966V29.0079ZM89.4262 28.9607H85.8665V5.99821H96.45V15.2146H92.8102V9.26952H89.426V25.6893H92.8102V19.7442H96.4498V28.9606L89.4262 28.9607ZM140.86 28.9607H137.3V5.99821H147.884V15.2146H144.244V9.26952H140.86V25.6893H144.244V19.7442H147.884V28.9606L140.86 28.9607ZM79.7046 9.26959H76.3843V25.6894H79.7046V9.26959ZM76.3204 28.9607H72.7605V5.99821H83.3442V28.9607H76.3204ZM118.719 9.26959H115.399V25.6894H118.719V9.26959ZM115.335 28.9607H111.775V5.99821H122.358V28.9607H115.335ZM128.44 9.26959V15.4349C129.765 15.5135 131.378 15.4349 131.378 13.0914V10.9997V9.26959H128.44ZM128.44 18.722V25.6894H131.378V21.2227C131.378 18.8792 129.765 18.6591 128.44 18.722ZM134.937 10.0402V12.8555C134.972 13.6357 134.809 14.412 134.464 15.1148C134.118 15.8176 133.601 16.4248 132.958 16.8818C133.623 17.4396 134.148 18.1417 134.492 18.9331C134.835 19.7245 134.988 20.5836 134.937 21.4429V28.9607H124.881V5.99821H134.937V10.0402ZM62.7355 21.3799C63.6613 16.473 64.8746 10.9839 65.4333 6.02968H70.2383V29.0079H67.1254V19.9173L67.4926 11.7074C66.6146 17.526 65.1274 23.2394 63.0549 28.7563V28.772H62.4003V28.7563C60.3319 23.2393 58.85 17.5257 57.9785 11.7074L58.3457 19.9173V29.0079H55.2329V6.02968H60.0217C60.5804 10.9839 61.7935 16.4729 62.7355 21.3799Z" fill="#26336A"/>
<path d="M97.9655 35.8968V46.1356C99.3064 46.2142 100.903 45.9783 100.903 43.6349V41.5588V35.8968H97.9655ZM104.479 40.5995V43.4147C104.479 46.9535 102.627 49.4227 99.1628 49.4227H97.9655V55.588H94.4058V32.6255C97.7581 32.6412 101.126 32.6255 104.479 32.6255V40.5995ZM105.452 32.6255H116.467V35.8968H112.747V55.5879H109.188V35.8968H105.452L105.452 32.6255ZM88.3556 35.8968H85.0353V52.3166H88.3556V35.8968ZM84.9714 55.5879H81.4116V32.6255H91.9794V55.588L84.9714 55.5879ZM58.7917 55.5879H55.2319V32.6255H65.8155V41.8419H62.1759V35.8968H58.7917V52.3166H62.1759V46.3715H65.8155V55.5879L58.7917 55.5879ZM71.8815 55.5879H68.3218V32.6255H78.9055V55.588H75.2659V35.8968H71.8817L71.8815 55.5879Z" fill="#26336A"/>
<path d="M24.1035 43.6498C24.9923 44.6982 25.941 45.696 26.945 46.638C31.8134 51.1908 37.89 54.2934 44.4726 55.5871V51.6237C38.9917 50.3798 33.9484 47.7134 29.8662 43.9014C28.5684 42.686 27.3825 41.3597 26.3224 39.938L24.1035 43.6498Z" fill="#26336A"/>
<path d="M9.46632 39.5144C11.7122 37.4464 13.5062 34.9487 14.7386 32.1741C15.971 29.3995 16.6158 26.4063 16.6337 23.3777V5.99854H20.7682V23.3777C20.7654 26.5736 21.2607 29.7509 22.2368 32.7986C23.2052 29.7491 23.7004 26.573 23.7055 23.3777V5.99854H27.84V23.3777C27.8586 26.4047 28.5022 29.3964 29.7316 32.1706C30.9611 34.9447 32.7507 37.4433 34.9915 39.5144C37.6951 42.0278 40.9349 43.914 44.4738 45.0348V49.0925C39.8306 47.853 35.5699 45.5029 32.0702 42.251C29.5119 39.8678 27.4513 37.0148 26.0043 33.8524C25.0741 36.4353 23.8076 38.8883 22.2368 41.1501H22.2209C20.6616 38.884 19.401 36.4318 18.4695 33.8524C17.011 37.0123 14.9457 39.8642 12.3875 42.251C8.89381 45.5026 4.63837 47.8528 0 49.0926V45.0348C3.53571 43.9175 6.7711 42.0307 9.46632 39.5144Z" fill="#26336A"/>
<path d="M34.4485 23.0163C34.4595 25.2218 34.9282 27.4018 35.8259 29.4222C36.7236 31.4426 38.0313 33.2608 39.6685 34.7649C41.0811 36.0905 42.7041 37.1795 44.4734 37.9891V42.204C41.594 41.1831 38.9626 39.5815 36.7472 37.5014C34.728 35.6476 33.1153 33.406 32.0089 30.9148C30.9025 28.4236 30.3257 25.7355 30.314 23.0162V19.1001H34.4485V23.0163Z" fill="#26336A"/>
<path d="M10.0249 19.1001H14.1595V23.0162C14.1477 25.7355 13.5709 28.4236 12.4645 30.9148C11.3581 33.406 9.74558 35.6476 7.72632 37.5014C5.51101 39.5815 2.8794 41.1831 0 42.204V37.9892C1.76929 37.1797 3.39237 36.0906 4.80495 34.765C6.44217 33.2609 7.74984 31.4428 8.64752 29.4223C9.54521 27.4019 10.0139 25.2219 10.0249 23.0164V19.1001Z" fill="#26336A"/>
<path d="M18.1344 39.9399C17.0789 41.3654 15.8927 42.6921 14.5905 43.9033C10.5143 47.715 5.47617 50.3815 0 51.6257V55.5891C6.57908 54.2986 12.6515 51.1954 17.5117 46.64C18.524 45.706 19.4732 44.7078 20.3532 43.6517L18.1344 39.9399Z" fill="#26336A"/>
</svg>
