<svg width="59" height="60" viewBox="0 0 59 60" fill="none" xmlns="http://www.w3.org/2000/svg">
<path d="M29.5 0C13.2036 0 0 13.2246 0 29.5469C0 45.8691 13.2036 59.0938 29.5 59.0938C45.7964 59.0938 59 45.8691 59 29.5469C59 13.2246 45.7964 0 29.5 0ZM43.9883 20.242L39.147 43.0932C38.7901 44.7135 37.8266 45.1066 36.4825 44.3441L29.1075 38.8994L25.5508 42.3307C25.1583 42.7238 24.8252 43.0574 24.0639 43.0574L24.5873 35.5396L38.2548 23.1729C38.8496 22.6486 38.124 22.3508 37.3389 22.875L20.4478 33.5262L13.1679 31.2506C11.5859 30.7502 11.5502 29.666 13.501 28.9035L41.9423 17.9187C43.2627 17.4422 44.4165 18.2404 43.9883 20.242Z" fill="#26336A"/>
</svg>
